<?xml version="1.0" encoding="UTF-8" standalone="no"?>
<!-- Created with Inkscape (http://www.inkscape.org/) -->

<svg
   width="252.0237mm"
   height="234.78131mm"
   viewBox="0 0 252.0237 234.78131"
   version="1.1"
   id="svg1"
   xmlns="http://www.w3.org/2000/svg"
   xmlns:svg="http://www.w3.org/2000/svg">
  <defs
     id="defs1" />
  <g
     id="layer1"
     transform="translate(-103.23146,-89.753341)">
    <path
       style="fill:#aacddc;fill-opacity:0.666667;stroke:none;stroke-width:30;stroke-dasharray:none;stroke-opacity:1"
       id="path29-8-5"
       d="m 228.36451,119.44032 -67.97723,39.24667 -67.977223,-39.24667 0,-78.493341 L 160.38728,1.7003098 228.36451,40.94698 Z"
       transform="matrix(0.57493397,0,0,0.57493397,186.05782,88.819797)" />
    <path
       style="fill:#f3e3d0;fill-opacity:0.666667;stroke:none;stroke-width:30;stroke-dasharray:none;stroke-opacity:1"
       id="path29-8-5-6"
       d="m 228.36451,119.44032 -67.97723,39.24667 -67.977223,-39.24667 0,-78.493341 L 160.38728,1.7003098 228.36451,40.94698 Z"
       transform="matrix(0.57493397,0,0,0.57493397,186.34477,233.30012)" />
    <path
       style="fill:#d2c4b4;fill-opacity:0.666667;stroke:none;stroke-width:30;stroke-dasharray:none;stroke-opacity:1"
       id="path29-8-5-0"
       d="m 228.36451,119.44032 -67.97723,39.24667 -67.977223,-39.24667 0,-78.493341 L 160.38728,1.7003098 228.36451,40.94698 Z"
       transform="matrix(0.57493397,0,0,0.57493397,103.76434,233.11228)" />
    <path
       style="fill:#d2c4b4;fill-opacity:0.666667;stroke:none;stroke-width:30;stroke-dasharray:none;stroke-opacity:1"
       id="path29-8-5-8"
       d="m 228.36451,119.44032 -67.97723,39.24667 -67.977223,-39.24667 0,-78.493341 L 160.38728,1.7003098 228.36451,40.94698 Z"
       transform="matrix(0.57493397,0,0,0.57493397,145.05455,160.32952)" />
    <path
       style="fill:#f3e3d0;fill-opacity:0.666667;stroke:none;stroke-width:30;stroke-dasharray:none;stroke-opacity:1"
       id="path29-8-5-86"
       d="m 228.36451,119.44032 -67.97723,39.24667 -67.977223,-39.24667 0,-78.493341 L 160.38728,1.7003098 228.36451,40.94698 Z"
       transform="matrix(0.57493397,0,0,0.57493397,102.53533,88.77577)" />
    <path
       style="fill:#f3e3d0;fill-opacity:0.666667;stroke:none;stroke-width:30;stroke-dasharray:none;stroke-opacity:1"
       id="path29-8-5-9"
       d="m 228.36451,119.44032 -67.97723,39.24667 -67.977223,-39.24667 0,-78.493341 L 160.38728,1.7003098 228.36451,40.94698 Z"
       transform="matrix(0.57493397,0,0,0.57493397,60.903786,161.02936)" />
    <path
       style="fill:none;fill-opacity:1;stroke:#81a6c6;stroke-width:10;stroke-dasharray:120, 10;stroke-dashoffset:0;stroke-opacity:1"
       id="path32"
       transform="rotate(25.231721)"
       d="m 367.03674,58.927672 a 132.34944,41.265465 0 0 1 61.05515,42.335878 132.34944,41.265465 0 0 1 -103.86417,33.25644 132.34944,41.265465 0 0 1 -137.3573,-17.90456 132.34944,41.265465 0 0 1 2.95686,-46.409744" />
  </g>
</svg>
